# xmcd
#
# Track frame offsets:
#	150
#	21000
#	36490
#	54115
#	69525
#	91363
#	111588
#	128840
#	142965
#	154260
#	166660
#	191400
#
# Disc length: 2797 seconds
#
# Revision: 0
# Processed by: cddbd v1.5.2PL0 Copyright (c) Steve Scherf et al.
# Submitted via: audiograbber 1.83.01
#
DISCID=9d0aeb0c
DTITLE=Shaver - Unshaven: Shaver Live At Smith's Olde Bar
DYEAR=1995
DGENRE=Country
TTITLE0=The Hottest Thing In Town
TTITLE1=Good News Blues
TTITLE2=Georgia On A Fast Train
TTITLE3=Honky Tonk Heroes
TTITLE4=Honey Bee
TTITLE5=Ride Me Down
TTITLE6=Love You 'til The Cows Come Home
TTITLE7=Live Forever
TTITLE8=Black Rose
TTITLE9=Old Chunk Of Coal
TTITLE10=Sweet Mama
TTITLE11=You Asked
EXTD=
EXTT0=
EXTT1=
EXTT2=
EXTT3=
EXTT4=
EXTT5=
EXTT6=
EXTT7=
EXTT8=
EXTT9=
EXTT10=
EXTT11=
PLAYORDER=
